<svg width="27" height="26" viewBox="0 0 27 26" fill="none" xmlns="http://www.w3.org/2000/svg">
<path d="M13.4001 10.4402V15.5602H20.6423C19.5851 18.54 16.7383 20.6802 13.4001 20.6802C9.16586 20.6802 5.7201 17.2344 5.7201 13.0002C5.7201 8.76596 9.16586 5.3202 13.4001 5.3202C15.2356 5.3202 17.002 5.97812 18.3742 7.17364L21.738 3.31316C19.434 1.30612 16.4747 0.200195 13.4001 0.200195C6.34218 0.200195 0.600098 5.94228 0.600098 13.0002C0.600098 20.0581 6.34218 25.8002 13.4001 25.8002C20.458 25.8002 26.2001 20.0581 26.2001 13.0002V10.4402H13.4001Z" fill="url(#paint0_linear)"/>
<defs>
<linearGradient id="paint0_linear" x1="-2.61207" y1="-12.7881" x2="34.9871" y2="-5.93014" gradientUnits="userSpaceOnUse">
<stop stop-color="#9AD1FF"/>
<stop offset="1" stop-color="#0075C8"/>
</linearGradient>
</defs>
</svg>
