<svg width="23" height="22" viewBox="0 0 23 22" fill="none" xmlns="http://www.w3.org/2000/svg">
<path d="M22.147 9.47874L18.7332 6.06495V2.12145C18.7332 1.40841 18.1554 0.830549 17.4413 0.830549C16.7289 0.830549 16.1511 1.40841 16.1511 2.12145V3.48283L13.6092 0.940902C12.3525 -0.315126 10.1675 -0.312898 8.91366 0.943175L0.377913 9.47874C-0.125971 9.98363 -0.125971 10.8006 0.377913 11.3047C0.882025 11.8094 1.70055 11.8094 2.20448 11.3047L10.7394 2.76888C11.0175 2.49229 11.5075 2.49229 11.7841 2.76806L20.3205 11.3047C20.5736 11.5571 20.9036 11.6826 21.2335 11.6826C21.5641 11.6826 21.8947 11.5569 22.1471 11.3047C22.6511 10.8006 22.6511 9.98367 22.147 9.47874Z" fill="#A5ADC1"/>
<path d="M11.7112 5.21909C11.4632 4.97124 11.0617 4.97124 10.8144 5.21909L3.30635 12.7249C3.18781 12.8434 3.12061 13.0052 3.12061 13.174V18.6485C3.12061 19.9331 4.1622 20.9747 5.44678 20.9747H9.16403V15.2179H13.3607V20.9747H17.078C18.3626 20.9747 19.4042 19.9331 19.4042 18.6486V13.174C19.4042 13.0052 19.3376 12.8434 19.2184 12.7249L11.7112 5.21909Z" fill="#A5ADC1"/>
<rect y="20" width="23" height="2" rx="1" fill="#A5ADC1"/>
</svg>
