<svg width="13" height="13" viewBox="0 0 13 13" fill="none" xmlns="http://www.w3.org/2000/svg">
<path d="M12.157 5.79657C12.0973 5.75909 11.7709 5.56296 11.4724 5.3952C11.2143 5.25012 11.0021 5.0281 10.8888 4.75455C10.7755 4.48101 10.7684 4.17402 10.8484 3.88895C10.9381 3.56908 11.0286 3.2093 11.0487 3.12101C11.0777 2.9941 11.0395 2.86121 10.9474 2.76915L10.3961 2.21781C10.304 2.12576 10.1711 2.08749 10.0442 2.11649C9.97633 2.13202 9.60641 2.22421 9.27631 2.31676C8.9912 2.39669 8.68421 2.38971 8.41065 2.2764C8.1371 2.16309 7.91495 1.95107 7.76994 1.69291C7.60756 1.40381 7.41743 1.08595 7.36863 1.00825C7.29943 0.89799 7.17838 0.831055 7.04819 0.831055L6.26842 0.831055C6.13823 0.831055 6.01717 0.89799 5.94795 1.00825C5.91047 1.06796 5.71434 1.39437 5.54658 1.69283C5.4015 1.95095 5.17949 2.16309 4.90593 2.2764C4.63239 2.38971 4.3254 2.39687 4.04033 2.31687C3.72047 2.2271 3.36068 2.13668 3.2724 2.11649C3.14549 2.08751 3.01259 2.12578 2.92054 2.21781L2.36918 2.76917C2.27712 2.86123 2.23885 2.99412 2.26785 3.12103C2.28338 3.18891 2.37558 3.55883 2.46813 3.88894C2.54805 4.17404 2.54108 4.48103 2.42776 4.75458C2.31445 5.02813 2.10244 5.25028 1.84429 5.39528C1.55518 5.55766 1.23732 5.74779 1.15962 5.7966C1.04936 5.86579 0.982422 5.98685 0.982422 6.11704L0.982422 6.89681C0.982422 7.027 1.04936 7.14806 1.15962 7.21728C1.21932 7.25476 1.54574 7.45089 1.8442 7.61865C2.10231 7.76373 2.31446 7.98574 2.42777 8.2593C2.54108 8.53284 2.54823 8.83983 2.46823 9.1249C2.37846 9.44477 2.28804 9.80455 2.26785 9.89284C2.23888 10.0197 2.27712 10.1526 2.36918 10.2447L2.92054 10.7961C3.01259 10.8881 3.14553 10.9264 3.2724 10.8974C3.34027 10.8819 3.71019 10.7897 4.0403 10.6971C4.3254 10.6172 4.63239 10.6242 4.90594 10.7375C5.17949 10.8508 5.40163 11.0628 5.54663 11.3209C5.70902 11.6101 5.89915 11.9279 5.94795 12.0056C6.01717 12.1159 6.13823 12.1828 6.26842 12.1828H7.04819C7.17838 12.1828 7.29943 12.1159 7.36865 12.0056C7.40613 11.9459 7.60227 11.6195 7.77002 11.321C7.9151 11.0629 8.13712 10.8508 8.41067 10.7375C8.68422 10.6242 8.99121 10.617 9.27627 10.697C9.59614 10.7868 9.95592 10.8772 10.0442 10.8974C10.1712 10.9264 10.304 10.8881 10.3961 10.7961L10.9474 10.2447C11.0395 10.1526 11.0778 10.0197 11.0487 9.89284C11.0332 9.82496 10.941 9.45504 10.8485 9.12493C10.7685 8.83983 10.7755 8.53284 10.8888 8.25929C11.0022 7.98574 11.2142 7.7636 11.4723 7.61859C11.7614 7.45621 12.0793 7.26608 12.157 7.21728C12.2672 7.14806 12.3342 7.027 12.3342 6.89681V6.11704C12.3342 5.98685 12.2672 5.86579 12.157 5.79657ZM6.6583 8.98137C5.2939 8.98137 4.18386 7.87133 4.18386 6.50692C4.18386 5.14252 5.2939 4.0325 6.6583 4.0325C8.02271 4.0325 9.13274 5.14254 9.13274 6.50695C9.13274 7.87136 8.02271 8.98137 6.6583 8.98137Z" fill="white"/>
</svg>
