<svg width="27" height="25" viewBox="0 0 27 25" fill="none" xmlns="http://www.w3.org/2000/svg">
<path d="M15.5016 0.088176C15.1922 -0.0594242 14.8276 -0.0203012 14.5609 0.194875L5.91112 7.1143H1.77832C0.798464 7.1143 0 7.91277 0 8.89262V16.0059C0 16.9875 0.798464 17.7842 1.77832 17.7842H5.91112L14.5591 24.7036C14.7209 24.8317 14.9183 24.8975 15.1157 24.8975C15.2473 24.8975 15.3789 24.8672 15.5016 24.8085C15.8092 24.6609 16.0048 24.3497 16.0048 24.0083V0.890196C16.0048 0.54876 15.8092 0.237555 15.5016 0.088176Z" fill="white"/>
<path d="M20.506 6.16164C20.1557 5.81664 19.5937 5.82198 19.2487 6.16875C18.9037 6.51908 18.9073 7.08103 19.2558 7.4278C20.6002 8.75442 21.34 10.5381 21.34 12.4498C21.34 14.3615 20.6002 16.1451 19.2558 17.4717C18.9073 17.8149 18.9037 18.3787 19.2487 18.729C19.423 18.9051 19.6524 18.9922 19.88 18.9922C20.1059 18.9922 20.3317 18.9068 20.506 18.7343C22.1918 17.0752 23.1183 14.8416 23.1183 12.4498C23.1183 10.0579 22.1918 7.82436 20.506 6.16164Z" fill="white"/>
<path d="M23.0148 3.65604C22.6645 3.30927 22.1025 3.31282 21.7558 3.66137C21.4108 4.00992 21.4143 4.57365 21.7611 4.91864C23.7831 6.9228 24.8963 9.59739 24.8963 12.4498C24.8963 15.3022 23.7831 17.975 21.7611 19.9792C21.4143 20.326 21.4108 20.8897 21.7558 21.2382C21.9318 21.4125 22.1595 21.4997 22.3871 21.4997C22.6129 21.4997 22.8406 21.4143 23.0148 21.2418C25.3764 18.9033 26.6746 15.7806 26.6746 12.4498C26.6746 9.11903 25.3764 5.9963 23.0148 3.65604Z" fill="white"/>
</svg>
