<svg width="22" height="22" viewBox="0 0 22 22" fill="none" xmlns="http://www.w3.org/2000/svg">
<path d="M21.6437 9.60497C21.5282 9.53247 20.8968 9.15308 20.3195 8.82858C19.8202 8.54795 19.4098 8.11849 19.1906 7.58935C18.9715 7.06022 18.9576 6.4664 19.1124 5.91498C19.286 5.29626 19.4609 4.60031 19.5 4.42954C19.556 4.18405 19.482 3.92699 19.304 3.74892L18.2375 2.68245C18.0594 2.50439 17.8023 2.43036 17.5568 2.48646C17.4255 2.51649 16.71 2.69484 16.0715 2.87385C15.52 3.02846 14.9261 3.01496 14.397 2.79578C13.8679 2.5766 13.4381 2.16648 13.1576 1.66711C12.8435 1.1079 12.4758 0.493057 12.3814 0.342753C12.2475 0.129476 12.0134 0 11.7615 0H10.2532C10.0014 0 9.76721 0.129476 9.63332 0.342753C9.56081 0.458246 9.18142 1.08965 8.85693 1.66696C8.5763 2.16625 8.14684 2.5766 7.6177 2.79579C7.08858 3.01497 6.49475 3.02881 5.94333 2.87406C5.32461 2.70042 4.62867 2.52552 4.45789 2.48646C4.21241 2.43041 3.95535 2.50443 3.77728 2.68245L2.71077 3.74897C2.5327 3.92703 2.45868 4.1841 2.51477 4.42958C2.54481 4.56088 2.72315 5.27643 2.90217 5.91498C3.05678 6.46645 3.04328 7.06028 2.82409 7.58942C2.60491 8.11855 2.1948 8.54825 1.69545 8.82873C1.13623 9.14284 0.521379 9.51061 0.371072 9.60501C0.157796 9.73886 0.0283203 9.97303 0.0283203 10.2249V11.7332C0.0283203 11.985 0.157796 12.2192 0.371072 12.3531C0.486566 12.4256 1.11796 12.805 1.69528 13.1295C2.19456 13.4101 2.60492 13.8396 2.8241 14.3687C3.04328 14.8978 3.05712 15.4916 2.90237 16.0431C2.72873 16.6618 2.55383 17.3577 2.51477 17.5285C2.45872 17.774 2.5327 18.0311 2.71077 18.2091L3.77728 19.2756C3.95535 19.4537 4.2125 19.5278 4.45789 19.4716C4.58919 19.4416 5.30474 19.2633 5.94328 19.0842C6.49476 18.9296 7.08858 18.9431 7.61772 19.1623C8.14685 19.3815 8.57655 19.7916 8.85703 20.291C9.17114 20.8502 9.53891 21.465 9.63332 21.6153C9.76721 21.8286 10.0014 21.9581 10.2532 21.9581H11.7615C12.0134 21.9581 12.2475 21.8286 12.3814 21.6153C12.4539 21.4998 12.8333 20.8684 13.1578 20.2911C13.4384 19.7918 13.8679 19.3815 14.397 19.1623C14.9262 18.9431 15.52 18.9293 16.0714 19.084C16.6901 19.2577 17.3861 19.4326 17.5568 19.4716C17.8024 19.5278 18.0594 19.4537 18.2375 19.2756L19.304 18.2091C19.482 18.0311 19.5561 17.774 19.5 17.5285C19.4699 17.3972 19.2916 16.6817 19.1126 16.0431C18.958 15.4916 18.9715 14.8978 19.1906 14.3687C19.4098 13.8395 19.8199 13.4098 20.3193 13.1294C20.8785 12.8153 21.4934 12.4475 21.6437 12.3531C21.8569 12.2192 21.9864 11.985 21.9864 11.7332V10.2249C21.9864 9.97303 21.8569 9.73886 21.6437 9.60497ZM11.0074 15.7654C8.36815 15.7654 6.22098 13.6182 6.22098 10.979C6.22098 8.3398 8.36815 6.19267 11.0074 6.19267C13.6466 6.19267 15.7938 8.33985 15.7938 10.9791C15.7938 13.6183 13.6466 15.7654 11.0074 15.7654Z" fill="#A5ADC1"/>
</svg>
