<svg width="32" height="18" viewBox="0 0 32 18" fill="none" xmlns="http://www.w3.org/2000/svg">
<path d="M31.148 15.8983C31.0651 15.7595 30.5522 14.6451 28.0844 12.3546C25.5008 9.95613 25.8479 10.3456 28.9597 6.19842C30.8549 3.67272 31.6126 2.1303 31.3755 1.47092C31.1499 0.842389 29.7559 1.0082 29.7559 1.0082L25.121 1.03519C25.121 1.03519 24.7778 0.988918 24.5214 1.14123C24.2727 1.29162 24.1126 1.63866 24.1126 1.63866C24.1126 1.63866 23.3781 3.59367 22.3986 5.25562C20.3337 8.76269 19.5066 8.94778 19.1692 8.72991C18.3845 8.22284 18.5812 6.69007 18.5812 5.60267C18.5812 2.20357 19.0959 0.786476 17.5767 0.420153C17.0715 0.298688 16.7013 0.217711 15.4115 0.204215C13.7573 0.186863 12.3556 0.209999 11.5632 0.59753C11.0349 0.855885 10.6281 1.43236 10.8768 1.46514C11.1834 1.50563 11.8774 1.65216 12.2457 2.15344C12.7219 2.79933 12.7046 4.25305 12.7046 4.25305C12.7046 4.25305 12.9783 8.25369 12.0664 8.75112C11.4398 9.09238 10.5818 8.39636 8.74056 5.21321C7.79776 3.58403 7.08439 1.78133 7.08439 1.78133C7.08439 1.78133 6.9475 1.44586 6.70264 1.26655C6.40573 1.04869 5.98928 0.979278 5.98928 0.979278L1.58183 1.00627C1.58183 1.00627 0.920522 1.02555 0.677592 1.31283C0.461654 1.56925 0.660239 2.09753 0.660239 2.09753C0.660239 2.09753 4.11139 10.1701 8.01755 14.2402C11.6017 17.9709 15.6699 17.726 15.6699 17.726H17.513C17.513 17.726 18.0702 17.6643 18.3537 17.3578C18.6159 17.0763 18.6062 16.548 18.6062 16.548C18.6062 16.548 18.5696 14.0744 19.7187 13.71C20.8504 13.3514 22.3042 16.1007 23.8446 17.1592C25.0092 17.9593 25.8941 17.7839 25.8941 17.7839L30.0143 17.726C30.0143 17.726 32.1698 17.593 31.148 15.8983Z" fill="url(#paint0_linear)"/>
<defs>
<linearGradient id="paint0_linear" x1="-3.2935" y1="-8.72922" x2="39.1777" y2="4.84748" gradientUnits="userSpaceOnUse">
<stop stop-color="#9AD1FF"/>
<stop offset="1" stop-color="#0075C8"/>
</linearGradient>
</defs>
</svg>
