<svg width="14" height="16" viewBox="0 0 14 16" fill="none" xmlns="http://www.w3.org/2000/svg">
<path d="M4.90098 3.07788C4.90098 4.23736 5.84077 5.17715 7.00024 5.17715C8.1597 5.17715 9.09975 4.23737 9.09975 3.07788V2.67529C9.09975 1.51582 8.15972 0.575781 7.00024 0.575781C5.84075 0.575781 4.90098 1.51583 4.90098 2.67529V3.07788Z" fill="white" stroke="white" stroke-width="0.2"/>
<path d="M4.25 7.62949H4.15V7.72949V12.6584V12.7584H4.25H9.75H9.85V12.6584V7.72949V7.62949H9.75H4.25Z" fill="white" stroke="white" stroke-width="0.2"/>
<path d="M2.32812 15.2582H11.6719C12.4175 15.2582 13.0219 14.6539 13.0219 13.9082C13.0219 13.1625 12.4175 12.5582 11.6719 12.5582H2.32812C1.58247 12.5582 0.978125 13.1625 0.978125 13.9082C0.978125 14.6539 1.58247 15.2582 2.32812 15.2582Z" fill="white" stroke="white" stroke-width="0.2"/>
<path d="M4.894 9.74179L7.00757 8.12588L9.1209 9.74179C9.51453 10.0428 10.0205 10.1559 10.5048 10.0511C11.2832 9.88297 11.8385 9.1948 11.8385 8.39868V8.10864C11.8385 6.3791 10.4366 4.97715 8.70728 4.97715H5.30762C3.57831 4.97715 2.17637 6.3791 2.17637 8.10864V8.39868C2.17637 9.19479 2.73193 9.88322 3.51016 10.0511C3.99463 10.1559 4.50037 10.0428 4.894 9.74179Z" fill="white" stroke="white" stroke-width="0.2"/>
</svg>
