<svg width="24" height="24" viewBox="0 0 24 24" fill="none" xmlns="http://www.w3.org/2000/svg">
<g clip-path="url(#clip0)">
<path d="M11.9956 6.87786C13.6187 6.87786 14.9345 5.56206 14.9345 3.93893C14.9345 2.3158 13.6187 1 11.9956 1C10.3724 1 9.05664 2.3158 9.05664 3.93893C9.05664 5.56206 10.3724 6.87786 11.9956 6.87786Z" fill="#A5ADC1"/>
<path d="M23.2969 21.5455H19.5675C22.1014 19.4096 23.0822 18.0949 22.1287 16.6328C21.258 15.2983 19.3038 16.059 17.7335 16.6704C17.1196 16.9105 16.4234 17.1818 16.1254 17.1818C15.0241 17.1818 14.7084 16.2935 14.7129 15.1413C14.7129 14.3942 14.8489 12.8665 14.9787 12.2756C15.5596 12.549 16.4145 12.8182 17.5316 12.8182C21.096 12.8182 23.7733 9.48863 23.8838 9.31607C24.0761 9.01493 24.0253 8.61222 23.7643 8.37217C23.5034 8.1328 23.1113 8.12572 22.8435 8.35937C21.5876 9.45314 20.4725 9.98507 19.5311 9.98507C18.7188 9.98507 17.8667 9.3423 16.9637 8.66119C15.8809 7.84446 14.761 7 13.4062 7H10.5938C9.24314 7 8.10056 7.84233 6.99506 8.65697C6.06811 9.33949 5.19263 9.98511 4.3762 9.98511C3.43481 9.98511 2.41223 9.45314 1.15566 8.35942C0.889219 8.12577 0.496453 8.13285 0.235547 8.37222C-0.0253594 8.61299 -0.0761719 9.01498 0.116766 9.31612C0.226594 9.48863 2.81133 12.8182 6.375 12.8182C7.49217 12.8182 8.34703 12.5497 8.92866 12.2756C9.05775 12.8686 9.19369 14.4034 9.19369 15.1691C9.19833 16.3067 8.86763 17.1818 7.78125 17.1818C7.48392 17.1818 6.78769 16.9105 6.17381 16.6704C4.60345 16.059 2.65064 15.2976 1.77858 16.6328C0.869391 18.0269 1.88658 19.4776 4.33894 21.5455H0.703125C0.314484 21.5455 0 21.8707 0 22.2727C0 22.6747 0.314484 23 0.703125 23H23.2969C23.6855 23 24 22.6747 24 22.2727C24 21.8707 23.6855 21.5455 23.2969 21.5455Z" fill="#A5ADC1"/>
</g>
<defs>
<clipPath id="clip0">
<rect width="24" height="24" fill="white"/>
</clipPath>
</defs>
</svg>
